<svg width="1200" height="1500" viewBox="0 0 1200 1500" fill="none" xmlns="http://www.w3.org/2000/svg">
  <rect width="1200" height="1500" fill="#090B10"/>
  <circle cx="865" cy="286" r="124" fill="#8AB4FF" fill-opacity="0.16"/>
  <rect y="1016" width="1200" height="484" fill="#0F141B"/>
  <path d="M82 1043C172 895 263.333 810 356 788C448.667 766 547.667 804.333 653 903C758.333 1001.67 940.667 1048.33 1200 1043V1500H82V1043Z" fill="#18212F"/>
  <path d="M329 884H502L454 734H377L329 884Z" fill="#253149"/>
  <path d="M650 852H873L773 643H748L650 852Z" fill="#1C2535"/>
  <path d="M0 1126C215.333 1076 413.333 1051 594 1051C774.667 1051 976.667 1078 1200 1132V1500H0V1126Z" fill="#131A25"/>
</svg>
