<svg width="1200" height="1500" viewBox="0 0 1200 1500" fill="none" xmlns="http://www.w3.org/2000/svg">
  <rect width="1200" height="1500" fill="#090B10"/>
  <rect y="1000" width="1200" height="500" fill="#0F141F"/>
  <rect x="108" y="226" width="194" height="774" rx="22" fill="#141C29"/>
  <rect x="339" y="166" width="165" height="834" rx="22" fill="#192334"/>
  <rect x="551" y="276" width="183" height="724" rx="22" fill="#121A25"/>
  <rect x="774" y="121" width="134" height="879" rx="22" fill="#182232"/>
  <rect x="942" y="319" width="148" height="681" rx="22" fill="#101723"/>
  <rect x="140" y="308" width="130" height="30" rx="15" fill="#8AB4FF"/>
  <rect x="370" y="282" width="104" height="28" rx="14" fill="#FF9D66"/>
  <rect x="582" y="366" width="122" height="28" rx="14" fill="#8AB4FF"/>
  <rect x="800" y="238" width="80" height="28" rx="14" fill="#FF9D66"/>
  <path d="M0 1084C240 1036 439 1012 597 1012C755 1012 956 1038 1200 1090V1500H0V1084Z" fill="url(#paint0_linear)"/>
  <defs>
    <linearGradient id="paint0_linear" x1="600" y1="1012" x2="600" y2="1500" gradientUnits="userSpaceOnUse">
      <stop stop-color="#172031"/>
      <stop offset="1" stop-color="#090B10"/>
    </linearGradient>
  </defs>
</svg>
