<svg width="900" height="1100" viewBox="0 0 900 1100" fill="none" xmlns="http://www.w3.org/2000/svg">
  <rect width="900" height="1100" fill="#090B10"/>
  <rect x="36" y="36" width="828" height="1028" rx="36" fill="url(#paint0_linear)"/>
  <circle cx="455" cy="356" r="146" fill="url(#paint1_radial)"/>
  <path d="M284 876C305.909 735.206 387.262 650 453 650C518.738 650 600.091 735.206 622 876H284Z" fill="#111827"/>
  <path d="M339 387C339 322.383 391.383 270 456 270C520.617 270 573 322.383 573 387V451C573 515.617 520.617 568 456 568C391.383 568 339 515.617 339 451V387Z" fill="#D7DCE5"/>
  <path d="M357 377C357 285.357 431.357 211 523 211H540C616.216 211 678 272.784 678 349C678 402.572 634.572 446 581 446H561C514.056 446 476 407.944 476 361V337C476 314.909 458.091 297 436 297C392.369 297 357 332.369 357 376V377Z" fill="#101521"/>
  <path d="M326 882C343.505 760.845 411.778 688 456 688C500.222 688 568.495 760.845 586 882H326Z" fill="#202B3F"/>
  <rect x="84" y="82" width="220" height="58" rx="29" fill="#FFFFFF" fill-opacity="0.06"/>
  <defs>
    <linearGradient id="paint0_linear" x1="82" y1="64" x2="796" y2="1038" gradientUnits="userSpaceOnUse">
      <stop stop-color="#0F1420"/>
      <stop offset="0.58" stop-color="#0C111A"/>
      <stop offset="1" stop-color="#141A26"/>
    </linearGradient>
    <radialGradient id="paint1_radial" cx="0" cy="0" r="1" gradientUnits="userSpaceOnUse" gradientTransform="translate(455 356) rotate(90) scale(146)">
      <stop stop-color="#8AB4FF" stop-opacity="0.85"/>
      <stop offset="1" stop-color="#8AB4FF" stop-opacity="0"/>
    </radialGradient>
  </defs>
</svg>
